# xmcd
#
# Track frame offsets:
#	150
#	12373
#	30267
#	43233
#	57103
#	68650
#	80376
#	93080
#	110049
#	122080
#	136521
#	152742
#
# Disc length: 2256 seconds
# Revision: 0
# Processed by: cddbd v1.5.2PL0 Copyright (c) Steve Scherf et al.
# Submitted via: dBpowerAMP V12.0
#
DISCID=8c08ce0c
DTITLE=Blue Highway - Sounds of Home
DYEAR=2011
DGENRE=Country
TTITLE0=I Ain't Gonna Lay My Hammer Down
TTITLE1=Sounds of Home
TTITLE2=Bluebird Days
TTITLE3=Restless Working Man
TTITLE4=Heather and Billy
TTITLE5=Storm
TTITLE6=Roaring Creek
TTITLE7=Only Seventeen
TTITLE8=If You've Got Something to Say
TTITLE9=My Heart Was Made To Love You
TTITLE10=Nobody's Fault But Mine
TTITLE11=Drinking from a Deeper Well
EXTD=
EXTT0=
EXTT1=
EXTT2=
EXTT3=
EXTT4=
EXTT5=
EXTT6=
EXTT7=
EXTT8=
EXTT9=
EXTT10=
EXTT11=
PLAYORDER=
